<?xml version="1.0" standalone="no"?>
<!DOCTYPE svg PUBLIC "-//W3C//DTD SVG 20010904//EN"
 "http://www.w3.org/TR/2001/REC-SVG-20010904/DTD/svg10.dtd">
<svg version="1.0" xmlns="http://www.w3.org/2000/svg"
 viewBox="0 0 2600.000000 2604.000000"
 preserveAspectRatio="xMidYMid meet">
<metadata>
Created by potrace 1.13, written by Peter Selinger 2001-2015
</metadata>
<g transform="translate(0.000000,2604.000000) scale(0.100000,-0.100000)"
fill="#000000" stroke="none">
<path d="M13665 16649 c-376 -19 -803 -63 -1110 -115 -533 -90 -936 -206
-1460 -419 -104 -42 -293 -119 -420 -170 -383 -154 -583 -251 -932 -451 -393
-226 -1035 -648 -1393 -919 l-35 -26 -17 21 c-9 11 -71 99 -138 195 -66 96
-125 177 -129 180 -24 14 -209 -155 -264 -242 -41 -64 -70 -161 -65 -214 10
-104 98 -214 242 -304 l78 -48 -24 -23 c-13 -12 -147 -138 -298 -279 l-275
-257 -125 6 c-146 7 -459 -8 -645 -30 -781 -92 -1496 -334 -2143 -726 l-133
-81 -97 19 c-130 25 -336 25 -452 1 -180 -38 -348 -131 -537 -297 -292 -256
-513 -652 -597 -1072 -14 -67 -28 -161 -32 -208 l-7 -85 -106 -105 c-115 -113
-177 -197 -212 -288 -28 -70 -30 -163 -12 -717 12 -375 28 -621 62 -942 l17
-165 -77 -38 c-237 -120 -224 -234 43 -364 237 -116 604 -218 1363 -381 2099
-449 3787 -781 4980 -979 510 -85 710 -105 1135 -113 785 -15 1619 94 2384
313 104 30 193 54 198 54 5 0 28 -15 51 -34 130 -105 368 -192 637 -233 83
-12 177 -17 340 -17 544 -1 943 98 1233 305 110 78 266 239 340 351 139 208
236 481 272 761 l6 47 139 0 139 0 2705 909 2704 910 94 -14 c312 -46 908 -69
1193 -46 170 14 378 46 451 70 197 66 360 269 504 631 143 359 269 934 330
1505 24 223 26 229 80 360 75 182 130 431 167 755 22 196 25 892 5 1095 -43
426 -104 710 -177 815 -22 31 -39 43 -79 55 -122 37 -480 92 -876 135 -171 19
-204 26 -280 56 -1280 523 -2757 726 -4010 553 l-155 -22 -330 47 c-1053 148
-2001 238 -2890 276 -275 11 -1122 11 -1360 -1z m4510 -794 c176 -8 390 -15
475 -15 749 -1 1257 -144 1375 -385 41 -82 38 -165 -8 -258 -102 -206 -346
-400 -905 -720 -626 -360 -1699 -891 -2913 -1443 -465 -210 -591 -265 -597
-259 -9 9 274 913 468 1495 253 757 418 1175 511 1296 125 162 374 263 724
293 160 13 525 12 870 -4z m-6615 -40 c1166 -63 2550 -162 3220 -230 599 -61
771 -95 962 -191 86 -43 133 -85 166 -148 25 -47 27 -61 27 -161 -1 -70 -7
-137 -18 -184 -76 -316 -391 -1056 -601 -1408 -177 -297 -376 -493 -593 -583
-144 -60 -312 -91 -583 -109 -85 -6 -270 -18 -410 -27 -219 -15 -287 -16 -490
-6 -488 25 -1202 103 -2281 252 -202 27 -374 50 -383 50 -32 0 -15 17 27 27
34 9 11 11 -123 11 -91 0 -160 -1 -155 -3 6 -2 51 -9 100 -16 l90 -12 -125
-42 c-827 -278 -2262 -1159 -3935 -2415 -126 -95 -237 -178 -245 -184 -8 -6 7
16 35 49 256 311 721 765 1075 1052 762 616 1678 1163 2547 1519 l132 54 143
1 143 1 -90 14 c-504 79 -2001 281 -2308 312 l-179 18 170 179 c212 225 532
527 807 761 781 665 1576 1145 2275 1372 186 61 219 69 269 65 25 -1 174 -10
331 -18z m10100 -641 c17 -15 58 -61 90 -103 78 -102 146 -166 260 -244 121
-82 163 -103 247 -123 133 -31 263 -8 617 111 309 104 336 102 386 -24 59
-150 77 -337 41 -416 -37 -82 -101 -113 -209 -101 -31 3 -104 9 -162 12 -92 5
-113 4 -168 -15 -123 -42 -196 -102 -278 -228 -72 -110 -81 -111 -200 -3 -95
85 -183 138 -279 166 -78 23 -218 23 -305 0 -36 -9 -456 -190 -935 -403 -5751
-2551 -5465 -2425 -5465 -2418 0 2 30 20 68 41 167 93 533 317 702 429 368
245 435 335 248 335 -145 0 -521 -66 -972 -169 -116 -27 -224 -52 -241 -55
-16 -4 78 31 210 77 2124 742 5477 2327 6034 2853 43 40 81 88 106 135 64 116
112 168 157 169 9 0 31 -12 48 -26z m838 -1449 c121 -29 273 -123 368 -228
188 -210 314 -529 359 -915 20 -167 20 -518 0 -687 -44 -379 -150 -702 -312
-949 -58 -88 -210 -240 -284 -284 -106 -62 -161 -76 -294 -77 -107 0 -127 3
-183 27 -149 62 -276 170 -380 321 -391 568 -458 1669 -141 2300 101 201 252
362 416 445 115 59 313 79 451 47z m-13058 -614 c-433 -145 -938 -413 -1595
-846 -633 -418 -1427 -1017 -2130 -1605 -118 -99 -215 -177 -215 -174 0 12
140 228 227 349 630 882 1796 1730 3138 2281 l130 53 310 0 310 0 -175 -58z
m-5286 -482 c33 -15 34 -43 5 -182 -43 -213 -152 -435 -311 -633 -95 -119
-483 -579 -566 -670 -113 -125 -193 -174 -250 -153 -122 46 -178 271 -115 462
87 263 349 681 561 894 221 222 527 350 676 282z m7631 -1001 c53 -13 107 -42
148 -78 42 -37 87 -134 94 -205 5 -46 1 -63 -22 -112 -91 -185 -462 -409
-1055 -638 -618 -238 -1441 -455 -1860 -491 l-84 -7 34 44 c19 24 139 147 265
274 337 337 595 557 855 729 212 140 298 180 662 310 472 168 773 222 963 174z
m6560 -646 c-257 -120 -735 -363 -835 -424 -58 -35 -134 -87 -170 -116 -36
-29 -124 -93 -196 -142 -139 -95 -169 -120 -140 -120 9 0 164 58 344 129 392
155 1535 574 1787 656 11 4 -56 -33 -150 -82 -495 -258 -1169 -695 -1495 -968
-147 -122 -341 -241 -690 -423 -281 -146 -948 -457 -959 -447 -2 3 20 169 50
371 l54 366 130 87 c485 326 1235 703 2145 1077 124 51 230 93 235 93 6 0 -44
-26 -110 -57z m-4014 -226 c406 -86 734 -581 835 -1258 24 -162 29 -505 10
-680 -58 -548 -265 -1001 -559 -1224 -72 -54 -197 -116 -277 -135 -76 -19
-231 -16 -309 5 -347 94 -637 483 -765 1026 -42 178 -57 305 -63 535 -7 295
13 498 73 740 172 687 598 1088 1055 991z"/>
<path d="M22421 13172 l0 -317 88 250 c49 138 91 260 95 272 6 18 0 26 -39 48
-25 15 -68 36 -95 46 l-50 19 1 -318z"/>
<path d="M22187 13465 c-53 -20 -135 -76 -183 -127 l-42 -43 144 -294 c79
-161 145 -296 149 -299 3 -3 5 171 5 386 0 439 6 406 -73 377z"/>
<path d="M22732 13249 c-5 -13 -78 -220 -162 -459 l-152 -435 26 -53 c15 -30
30 -52 35 -50 4 2 119 128 255 281 l248 279 -45 114 c-47 115 -97 209 -161
298 -34 49 -35 49 -44 25z"/>
<path d="M21842 13138 c-39 -48 -182 -398 -182 -448 0 -14 560 -381 571 -374
5 3 9 13 9 23 0 14 -372 796 -384 809 -2 1 -8 -3 -14 -10z"/>
<path d="M22831 12426 c-105 -119 -191 -217 -191 -218 0 -2 97 -2 215 1 l215
3 0 -69 0 -70 -52 -7 c-29 -3 -142 -6 -250 -6 -109 0 -198 -3 -198 -7 0 -17
356 -741 362 -737 10 7 75 210 98 309 63 270 69 654 14 930 -9 44 -17 81 -19
83 -1 1 -88 -94 -194 -212z"/>
<path d="M21611 12438 c-16 -107 -27 -433 -15 -440 15 -8 566 128 574 143 5 7
6 17 3 22 -8 12 -531 357 -542 357 -4 0 -13 -37 -20 -82z"/>
<path d="M22420 11377 c0 -699 -13 -632 111 -570 85 42 201 151 268 250 l42
63 -207 427 c-114 236 -209 430 -210 432 -2 2 -4 -269 -4 -602z"/>
<path d="M21842 11902 l-234 -56 7 -56 c19 -161 93 -416 159 -550 21 -41 40
-78 44 -82 4 -4 54 126 111 290 57 163 121 345 142 405 33 93 36 107 21 106
-9 0 -122 -26 -250 -57z"/>
<path d="M22237 11838 c-8 -24 -78 -224 -156 -445 -77 -222 -141 -407 -141
-412 0 -15 94 -106 145 -141 51 -35 128 -70 156 -70 18 0 19 15 19 555 0 305
-2 555 -4 555 -2 0 -11 -19 -19 -42z"/>
<path d="M14017 10556 c-69 -29 -122 -64 -190 -126 l-48 -45 161 -327 c89
-181 163 -328 166 -328 2 0 4 191 4 425 0 484 10 443 -93 401z"/>
<path d="M14280 10239 c0 -189 4 -337 9 -329 4 8 52 140 107 294 l98 279 -25
20 c-30 25 -115 65 -157 73 l-32 7 0 -344z"/>
<path d="M14462 9863 c-95 -268 -172 -495 -172 -503 0 -17 47 -120 54 -120 3
0 130 137 282 306 l276 305 -23 62 c-54 149 -149 327 -216 405 l-28 33 -173
-488z"/>
<path d="M13591 10098 c-56 -113 -141 -343 -140 -378 0 -8 39 -40 87 -70 48
-30 185 -118 305 -197 120 -79 222 -143 227 -143 36 0 12 60 -192 475 -117
239 -216 435 -220 435 -3 0 -34 -55 -67 -122z"/>
<path d="M14739 9434 c-112 -124 -206 -229 -207 -235 -2 -6 84 -7 232 -2 l236
6 0 -81 0 -82 -275 0 c-214 0 -275 -3 -274 -12 0 -7 89 -193 198 -413 l197
-400 33 90 c136 371 170 832 94 1263 -9 50 -20 92 -24 92 -4 0 -99 -101 -210
-226z"/>
<path d="M13406 9513 c-24 -117 -42 -443 -29 -509 l8 -41 309 74 c277 65 325
81 326 105 0 6 -594 398 -604 398 -2 0 -7 -12 -10 -27z"/>
<path d="M14280 8291 l0 -663 28 6 c65 15 173 79 242 143 75 69 190 214 190
238 0 13 -442 920 -454 933 -3 3 -6 -293 -6 -657z"/>
<path d="M13655 8866 l-260 -62 3 -45 c6 -77 52 -279 92 -399 45 -139 127
-317 139 -304 7 8 311 857 311 870 0 7 -22 3 -285 -60z"/>
<path d="M14099 8838 c0 -2 -78 -221 -173 -488 l-173 -485 25 -30 c67 -82 214
-179 305 -201 l27 -6 0 606 c0 333 -2 606 -5 606 -3 0 -5 -1 -6 -2z"/>
</g>
</svg>
